<mxfile host="app.diagrams.net" modified="2023-05-03T13:25:07.601Z" agent="Mozilla/5.0 (Windows NT 10.0; Win64; x64) AppleWebKit/537.36 (KHTML, like Gecko) Chrome/109.0.0.0 Safari/537.36" etag="a7z3bOohN-3x6tDt-1VN" version="21.1.4" type="device">
  <diagram id="C5RBs43oDa-KdzZeNtuy" name="Page-1">
    <mxGraphModel dx="1434" dy="774" grid="1" gridSize="10" guides="1" tooltips="1" connect="1" arrows="1" fold="1" page="1" pageScale="1" pageWidth="827" pageHeight="1169" math="0" shadow="0">
      <root>
        <mxCell id="WIyWlLk6GJQsqaUBKTNV-0" />
        <mxCell id="WIyWlLk6GJQsqaUBKTNV-1" parent="WIyWlLk6GJQsqaUBKTNV-0" />
        <mxCell id="FR2SG5bf98K3dQZFKsS7-42" value="" style="endArrow=none;html=1;rounded=0;" edge="1" parent="WIyWlLk6GJQsqaUBKTNV-1">
          <mxGeometry width="50" height="50" relative="1" as="geometry">
            <mxPoint x="40" y="130" as="sourcePoint" />
            <mxPoint x="780" y="130" as="targetPoint" />
          </mxGeometry>
        </mxCell>
        <mxCell id="FR2SG5bf98K3dQZFKsS7-43" value="" style="endArrow=none;html=1;rounded=0;" edge="1" parent="WIyWlLk6GJQsqaUBKTNV-1">
          <mxGeometry width="50" height="50" relative="1" as="geometry">
            <mxPoint x="410" y="100" as="sourcePoint" />
            <mxPoint x="410" y="970" as="targetPoint" />
          </mxGeometry>
        </mxCell>
        <mxCell id="FR2SG5bf98K3dQZFKsS7-44" value="&lt;b&gt;&lt;font style=&quot;font-size: 18px;&quot;&gt;Usuário ADM&lt;/font&gt;&lt;/b&gt;" style="text;html=1;align=center;verticalAlign=middle;resizable=0;points=[];autosize=1;strokeColor=none;fillColor=none;" vertex="1" parent="WIyWlLk6GJQsqaUBKTNV-1">
          <mxGeometry x="510" y="90" width="140" height="40" as="geometry" />
        </mxCell>
        <mxCell id="FR2SG5bf98K3dQZFKsS7-45" value="&lt;b&gt;&lt;font style=&quot;font-size: 16px;&quot;&gt;Registro de um novo equipamento&lt;/font&gt;&lt;/b&gt;" style="text;html=1;align=center;verticalAlign=middle;resizable=0;points=[];autosize=1;strokeColor=none;fillColor=none;" vertex="1" parent="WIyWlLk6GJQsqaUBKTNV-1">
          <mxGeometry x="60" y="95" width="290" height="30" as="geometry" />
        </mxCell>
        <mxCell id="FR2SG5bf98K3dQZFKsS7-46" style="edgeStyle=orthogonalEdgeStyle;rounded=0;orthogonalLoop=1;jettySize=auto;html=1;exitX=0.5;exitY=1;exitDx=0;exitDy=0;strokeWidth=1;" edge="1" parent="WIyWlLk6GJQsqaUBKTNV-1" source="FR2SG5bf98K3dQZFKsS7-47">
          <mxGeometry relative="1" as="geometry">
            <mxPoint x="605" y="280" as="targetPoint" />
          </mxGeometry>
        </mxCell>
        <mxCell id="FR2SG5bf98K3dQZFKsS7-47" value="" style="ellipse;whiteSpace=wrap;html=1;aspect=fixed;fillColor=#000000;" vertex="1" parent="WIyWlLk6GJQsqaUBKTNV-1">
          <mxGeometry x="575" y="160" width="60" height="60" as="geometry" />
        </mxCell>
        <mxCell id="FR2SG5bf98K3dQZFKsS7-48" style="edgeStyle=orthogonalEdgeStyle;rounded=0;orthogonalLoop=1;jettySize=auto;html=1;exitX=0.5;exitY=1;exitDx=0;exitDy=0;strokeWidth=1;entryX=0.5;entryY=0;entryDx=0;entryDy=0;" edge="1" parent="WIyWlLk6GJQsqaUBKTNV-1" source="FR2SG5bf98K3dQZFKsS7-81" target="FR2SG5bf98K3dQZFKsS7-52">
          <mxGeometry relative="1" as="geometry">
            <mxPoint x="605.3529411764707" y="470" as="targetPoint" />
          </mxGeometry>
        </mxCell>
        <mxCell id="FR2SG5bf98K3dQZFKsS7-50" value="Tela de login" style="rounded=1;whiteSpace=wrap;html=1;perimeterSpacing=0;strokeColor=#999900;fillColor=#FFE599;" vertex="1" parent="WIyWlLk6GJQsqaUBKTNV-1">
          <mxGeometry x="540" y="280" width="130" height="50" as="geometry" />
        </mxCell>
        <mxCell id="FR2SG5bf98K3dQZFKsS7-52" value="Tela de home" style="rounded=1;whiteSpace=wrap;html=1;perimeterSpacing=0;strokeColor=#999900;fillColor=#FFE599;" vertex="1" parent="WIyWlLk6GJQsqaUBKTNV-1">
          <mxGeometry x="540" y="640" width="130" height="50" as="geometry" />
        </mxCell>
        <mxCell id="FR2SG5bf98K3dQZFKsS7-54" style="edgeStyle=orthogonalEdgeStyle;rounded=0;orthogonalLoop=1;jettySize=auto;html=1;exitX=0.5;exitY=1;exitDx=0;exitDy=0;entryX=0.5;entryY=0;entryDx=0;entryDy=0;strokeWidth=1;" edge="1" parent="WIyWlLk6GJQsqaUBKTNV-1" source="FR2SG5bf98K3dQZFKsS7-55" target="FR2SG5bf98K3dQZFKsS7-57">
          <mxGeometry relative="1" as="geometry" />
        </mxCell>
        <mxCell id="FR2SG5bf98K3dQZFKsS7-55" value="deletar um equipamento" style="rounded=1;whiteSpace=wrap;html=1;perimeterSpacing=0;strokeColor=#999900;fillColor=#FFE599;" vertex="1" parent="WIyWlLk6GJQsqaUBKTNV-1">
          <mxGeometry x="210" y="430" width="130" height="50" as="geometry" />
        </mxCell>
        <mxCell id="FR2SG5bf98K3dQZFKsS7-56" style="edgeStyle=orthogonalEdgeStyle;rounded=0;orthogonalLoop=1;jettySize=auto;html=1;exitX=0.5;exitY=1;exitDx=0;exitDy=0;entryX=0.5;entryY=0;entryDx=0;entryDy=0;strokeWidth=1;" edge="1" parent="WIyWlLk6GJQsqaUBKTNV-1" source="FR2SG5bf98K3dQZFKsS7-57" target="FR2SG5bf98K3dQZFKsS7-59">
          <mxGeometry relative="1" as="geometry" />
        </mxCell>
        <mxCell id="FR2SG5bf98K3dQZFKsS7-57" value="listar&amp;nbsp; os comentários" style="rounded=1;whiteSpace=wrap;html=1;perimeterSpacing=0;strokeColor=#999900;fillColor=#FFE599;" vertex="1" parent="WIyWlLk6GJQsqaUBKTNV-1">
          <mxGeometry x="210" y="520" width="130" height="50" as="geometry" />
        </mxCell>
        <mxCell id="FR2SG5bf98K3dQZFKsS7-58" style="edgeStyle=orthogonalEdgeStyle;rounded=0;orthogonalLoop=1;jettySize=auto;html=1;exitX=0.5;exitY=1;exitDx=0;exitDy=0;entryX=0.5;entryY=0;entryDx=0;entryDy=0;strokeWidth=1;" edge="1" parent="WIyWlLk6GJQsqaUBKTNV-1" source="FR2SG5bf98K3dQZFKsS7-59" target="FR2SG5bf98K3dQZFKsS7-73">
          <mxGeometry relative="1" as="geometry" />
        </mxCell>
        <mxCell id="FR2SG5bf98K3dQZFKsS7-59" value="adicionar um comentário." style="rounded=1;whiteSpace=wrap;html=1;perimeterSpacing=0;strokeColor=#999900;fillColor=#FFE599;" vertex="1" parent="WIyWlLk6GJQsqaUBKTNV-1">
          <mxGeometry x="210" y="620" width="130" height="50" as="geometry" />
        </mxCell>
        <mxCell id="FR2SG5bf98K3dQZFKsS7-60" style="edgeStyle=orthogonalEdgeStyle;rounded=0;orthogonalLoop=1;jettySize=auto;html=1;exitX=0.5;exitY=1;exitDx=0;exitDy=0;entryX=0.5;entryY=0;entryDx=0;entryDy=0;strokeWidth=0;" edge="1" parent="WIyWlLk6GJQsqaUBKTNV-1">
          <mxGeometry relative="1" as="geometry">
            <mxPoint x="605" y="610" as="sourcePoint" />
            <mxPoint x="605" y="640" as="targetPoint" />
          </mxGeometry>
        </mxCell>
        <mxCell id="FR2SG5bf98K3dQZFKsS7-61" style="edgeStyle=orthogonalEdgeStyle;rounded=0;orthogonalLoop=1;jettySize=auto;html=1;exitX=0.5;exitY=1;exitDx=0;exitDy=0;entryX=0.5;entryY=0;entryDx=0;entryDy=0;" edge="1" parent="WIyWlLk6GJQsqaUBKTNV-1">
          <mxGeometry relative="1" as="geometry">
            <mxPoint x="605" y="610" as="sourcePoint" />
            <mxPoint x="605" y="640" as="targetPoint" />
          </mxGeometry>
        </mxCell>
        <mxCell id="FR2SG5bf98K3dQZFKsS7-63" style="edgeStyle=orthogonalEdgeStyle;rounded=0;orthogonalLoop=1;jettySize=auto;html=1;exitX=0.5;exitY=1;exitDx=0;exitDy=0;entryX=0;entryY=0.5;entryDx=0;entryDy=0;" edge="1" parent="WIyWlLk6GJQsqaUBKTNV-1" target="FR2SG5bf98K3dQZFKsS7-55">
          <mxGeometry relative="1" as="geometry">
            <mxPoint x="100" y="550" as="targetPoint" />
            <Array as="points">
              <mxPoint x="605" y="710" />
              <mxPoint x="70" y="710" />
              <mxPoint x="70" y="455" />
            </Array>
            <mxPoint x="605" y="690" as="sourcePoint" />
          </mxGeometry>
        </mxCell>
        <mxCell id="FR2SG5bf98K3dQZFKsS7-66" value="&lt;b style=&quot;font-size: 8px;&quot;&gt;atividade existe?&lt;/b&gt;" style="text;html=1;align=center;verticalAlign=middle;resizable=0;points=[];autosize=1;strokeColor=none;fillColor=none;fontSize=8;" vertex="1" parent="WIyWlLk6GJQsqaUBKTNV-1">
          <mxGeometry x="620" y="330" width="90" height="20" as="geometry" />
        </mxCell>
        <mxCell id="FR2SG5bf98K3dQZFKsS7-69" value="" style="ellipse;whiteSpace=wrap;html=1;aspect=fixed;" vertex="1" parent="WIyWlLk6GJQsqaUBKTNV-1">
          <mxGeometry x="560" y="830" width="70" height="70" as="geometry" />
        </mxCell>
        <mxCell id="FR2SG5bf98K3dQZFKsS7-70" value="" style="ellipse;whiteSpace=wrap;html=1;aspect=fixed;strokeColor=#0A0000;fillColor=#0A0000;" vertex="1" parent="WIyWlLk6GJQsqaUBKTNV-1">
          <mxGeometry x="567.5" y="837.5" width="55" height="55" as="geometry" />
        </mxCell>
        <mxCell id="FR2SG5bf98K3dQZFKsS7-71" style="edgeStyle=orthogonalEdgeStyle;rounded=0;orthogonalLoop=1;jettySize=auto;html=1;exitX=0.5;exitY=1;exitDx=0;exitDy=0;" edge="1" parent="WIyWlLk6GJQsqaUBKTNV-1" source="FR2SG5bf98K3dQZFKsS7-73">
          <mxGeometry relative="1" as="geometry">
            <mxPoint x="274.7647058823529" y="840" as="targetPoint" />
          </mxGeometry>
        </mxCell>
        <mxCell id="FR2SG5bf98K3dQZFKsS7-73" value="cadastrar um equipamento." style="rounded=1;whiteSpace=wrap;html=1;perimeterSpacing=0;strokeColor=#999900;fillColor=#FFE599;" vertex="1" parent="WIyWlLk6GJQsqaUBKTNV-1">
          <mxGeometry x="210" y="730" width="130" height="50" as="geometry" />
        </mxCell>
        <mxCell id="FR2SG5bf98K3dQZFKsS7-74" style="edgeStyle=orthogonalEdgeStyle;rounded=0;orthogonalLoop=1;jettySize=auto;html=1;exitX=1;exitY=0.5;exitDx=0;exitDy=0;" edge="1" parent="WIyWlLk6GJQsqaUBKTNV-1" source="FR2SG5bf98K3dQZFKsS7-75">
          <mxGeometry relative="1" as="geometry">
            <mxPoint x="560" y="864.5882352941178" as="targetPoint" />
          </mxGeometry>
        </mxCell>
        <mxCell id="FR2SG5bf98K3dQZFKsS7-75" value="encerrar" style="rounded=1;whiteSpace=wrap;html=1;perimeterSpacing=0;strokeColor=#999900;fillColor=#FFE599;" vertex="1" parent="WIyWlLk6GJQsqaUBKTNV-1">
          <mxGeometry x="210" y="840" width="130" height="50" as="geometry" />
        </mxCell>
        <mxCell id="FR2SG5bf98K3dQZFKsS7-79" value="" style="edgeStyle=orthogonalEdgeStyle;rounded=0;orthogonalLoop=1;jettySize=auto;html=1;exitX=0.5;exitY=1;exitDx=0;exitDy=0;strokeWidth=1;entryX=0.5;entryY=0;entryDx=0;entryDy=0;" edge="1" parent="WIyWlLk6GJQsqaUBKTNV-1" source="FR2SG5bf98K3dQZFKsS7-50" target="FR2SG5bf98K3dQZFKsS7-81">
          <mxGeometry relative="1" as="geometry">
            <mxPoint x="605" y="430" as="targetPoint" />
            <mxPoint x="605" y="330" as="sourcePoint" />
          </mxGeometry>
        </mxCell>
        <mxCell id="FR2SG5bf98K3dQZFKsS7-80" style="edgeStyle=orthogonalEdgeStyle;rounded=0;orthogonalLoop=1;jettySize=auto;html=1;exitX=0;exitY=0.5;exitDx=0;exitDy=0;" edge="1" parent="WIyWlLk6GJQsqaUBKTNV-1" source="FR2SG5bf98K3dQZFKsS7-81">
          <mxGeometry relative="1" as="geometry">
            <mxPoint x="540" y="310" as="targetPoint" />
            <Array as="points">
              <mxPoint x="490" y="370" />
              <mxPoint x="490" y="310" />
              <mxPoint x="540" y="310" />
            </Array>
          </mxGeometry>
        </mxCell>
        <mxCell id="FR2SG5bf98K3dQZFKsS7-81" value="" style="rhombus;whiteSpace=wrap;html=1;fillColor=#fff2cc;strokeColor=#d6b656;" vertex="1" parent="WIyWlLk6GJQsqaUBKTNV-1">
          <mxGeometry x="560" y="345" width="90" height="50" as="geometry" />
        </mxCell>
      </root>
    </mxGraphModel>
  </diagram>
</mxfile>
